<?xml version="1.0" encoding="UTF-8" standalone="no"?>
<svg width="44px" height="43px" viewBox="0 0 44 43" version="1.1" xmlns="http://www.w3.org/2000/svg" xmlns:xlink="http://www.w3.org/1999/xlink">
    <!-- Generator: Sketch 42 (36781) - http://www.bohemiancoding.com/sketch -->
    <title>youtube-logo</title>
    <desc>Created with Sketch.</desc>
    <defs></defs>
    <g id="Welcome" stroke="none" stroke-width="1" fill="none" fill-rule="evenodd">
        <g id="Ethno" transform="translate(-111.000000, -951.000000)" fill="#a98c63">
            <g id="Group-2" transform="translate(43.000000, 950.000000)">
                <g id="youtube-logo" transform="translate(68.000000, 1.000000)">
                    <path d="M33,2 L27,2 L19,0 L10,2 L5.2629234,1.00229807 C2.90969776,1.00229807 1,2.90739969 1,5.2629234 L2,10 L1,19 C1,19 4.22763525,23.268377 4,26 C3.77236475,28.731623 1.54928177,29.8028729 1,32 C0.450718227,34.1971271 1,36 1,36 L3,39 C3,41.3555237 5.2629234,42.6755341 5.2629234,42.6755341 L12,42 L20,42.6755341 L29,41 L35,43 L38.4149088,42.6755341 C40.7681344,42.6755341 42.6778322,40.7727306 42.6778322,38.4149088 L42.6778322,36 C42.6778322,36 44,32.8337326 44,31 C44,29.1670659 42.6778322,25 42.6778322,25 L42.6778322,18 L40,12 L42.6778322,7 C42.6778322,4.64447629 41.3555237,1.00229807 39,1.00229807 L33,2 Z M25.0079573,8.03899427 L27.0371548,8.03899427 L27.0371548,14.4391245 C27.0371548,15.668593 27.076222,15.6318239 27.1175873,15.7857947 C27.1612507,15.9489578 27.3083273,16.3327358 27.7840281,16.3327358 C28.289604,16.3327358 28.4297863,15.9282751 28.4688536,15.7559197 C28.5010266,15.6065451 28.5377957,15.63642 28.5377957,14.3540959 L28.5377957,8.03899427 L30.5646952,8.03899427 L30.5646952,17.6449349 L28.5102189,17.6449349 L28.5354977,17.1600417 L27.9104221,16.9003596 C27.7518551,17.2220896 27.5680094,17.4518968 27.3427983,17.6127619 C27.1152892,17.7713288 26.8602032,17.8517613 26.5568577,17.8517613 C26.2075508,17.8517613 25.9225899,17.775925 25.7065711,17.6265503 C25.4951485,17.4817718 25.3480719,17.3025221 25.2515529,17.075013 C25.1458416,16.8222251 25.0791975,16.5487546 25.0539187,16.2798801 C25.0240438,15.9696404 25.0079573,15.3284784 25.0079573,14.3724805 L25.0079573,8.03899427 L25.0079573,8.03899427 L25.0079573,8.03899427 Z M17.9574726,12.0330433 C17.9574726,11.0310839 18.0425013,10.2566337 18.2033663,9.70739448 C18.3550391,9.19952058 18.6239135,8.79965607 19.0260761,8.49171443 C19.4351329,8.17228244 19.9751798,8.01371548 20.6324283,8.01371548 C21.1931579,8.01371548 21.6734549,8.12402293 22.0664252,8.3308494 C22.4479052,8.53307973 22.7420584,8.797358 22.9419906,9.10759771 C23.146519,9.43392392 23.2889995,9.76714435 23.3648359,10.1026628 C23.4429703,10.4519698 23.4820375,11.0172955 23.4820375,11.7802553 L23.4820375,13.4716363 C23.4820375,14.4644033 23.4429703,15.188296 23.3717301,15.6341219 C23.3027879,16.0431787 23.1511152,16.433851 22.923606,16.7923502 C22.6960969,17.1439552 22.4134341,17.4059354 22.0526368,17.5759927 C21.6803491,17.7529442 21.2414174,17.8448671 20.74963,17.8448671 C20.1889005,17.8448671 19.7131996,17.7667327 19.3317196,17.6058676 C18.9778166,17.4633872 18.7066441,17.2565607 18.5182022,16.978494 C18.3251641,16.6889369 18.1826837,16.3327358 18.097655,15.9190829 C18.0057322,15.4732569 17.9597707,14.7792392 17.9597707,13.8531162 L17.9574726,12.0330433 L17.9574726,12.0330433 Z M13.2119541,4.61716519 L14.8619698,9.92800938 C15.1492288,8.53997394 15.7053622,6.61878583 16.146592,4.61716519 L17.6426368,4.61716519 L15.7168525,12.1939083 L15.7030641,12.2536582 L15.7030641,17.6403387 L13.9496352,17.6403387 L13.9496352,12.2536582 L13.9358468,12.1962064 L11.7159093,4.61716519 L13.2119541,4.61716519 L13.2119541,4.61716519 Z M37.0981136,34.3243408 C36.8361334,36.7143356 34.715013,38.6722929 32.3365086,38.8331579 C25.3319854,39.1342053 18.3481449,39.1342053 11.3459197,38.8331579 C8.96511725,38.6722929 6.84629495,36.7143356 6.58201668,34.3243408 C6.32233455,30.5417144 6.32233455,26.8257322 6.58201668,23.0477019 C6.84399687,20.6577071 8.96511725,18.704346 11.3459197,18.5365868 C18.3481449,18.2378374 25.3319854,18.2378374 32.3365086,18.5365868 C34.7173111,18.704346 36.8361334,20.6577071 37.0981136,23.0477019 C37.3600938,26.8257322 37.3600938,30.5417144 37.0981136,34.3243408 L37.0981136,34.3243408 Z M20.7197551,16.6958312 C21.0139083,16.6958312 21.2437155,16.5188796 21.3471287,16.2132361 C21.3953882,16.0730537 21.45284,15.8064773 21.45284,15.0802866 L21.45284,10.9184784 C21.45284,10.0773841 21.4045805,9.80621157 21.3540229,9.65224075 C21.2506097,9.33970297 21.0231006,9.15815529 20.7266493,9.15815529 C20.4347942,9.15815529 20.204987,9.33280875 20.0969776,9.64304846 C20.0418239,9.79242314 19.9866701,10.0704898 19.9866701,10.9184784 L19.9866701,14.965383 C19.9866701,15.7605159 20.0441219,16.0339865 20.0946795,16.1879573 C20.2003908,16.5096873 20.4278999,16.6958312 20.7197551,16.6958312 L20.7197551,16.6958312 Z M9.31212611,23.7738927 L10.9667379,23.7738927 L11.2953622,23.7738927 L11.2953622,24.1117092 L11.2953622,34.9218395 L13.3728192,34.9218395 L13.3728192,24.1117092 L13.3728192,23.7738927 L13.6991454,23.7738927 L15.3606514,23.7738927 L15.3606514,21.6596665 L9.31212611,21.6596665 L9.31212611,23.7738927 L9.31212611,23.7738927 Z M19.1363835,31.1162324 C19.1363835,32.3135279 19.1019125,32.6099792 19.0743356,32.7363731 C19.0030954,33.0466128 18.7549036,33.2350547 18.4055967,33.2350547 C18.0723762,33.2350547 17.8310787,33.0558051 17.7529442,32.7593538 C17.7184732,32.6329599 17.681704,32.3365086 17.681704,31.1966649 L17.681704,24.8608807 L15.7145545,24.8608807 L15.7145545,31.7642887 C15.7145545,32.6743252 15.7283429,33.2810162 15.7559197,33.5797655 C15.7834966,33.8532361 15.8547368,34.1244085 15.9650443,34.3794945 C16.0638614,34.6093017 16.2132361,34.7862533 16.4223606,34.9218395 C16.6245909,35.0620219 16.8934653,35.128666 17.2174935,35.128666 C17.4955602,35.128666 17.7368577,35.0574257 17.9482804,34.9126472 C18.1665972,34.7655706 18.3573372,34.5311673 18.513606,34.2209276 L19.1363835,34.3726003 L19.1088067,34.9333299 L21.1035331,34.9333299 L21.1035331,24.8608807 L19.1386816,24.8608807 L19.1363835,31.1162324 L19.1363835,31.1162324 Z M27.8368838,25.3710526 C27.7288744,25.1573319 27.5726055,24.998765 27.3657791,24.8769672 C27.1520584,24.7551694 26.8900782,24.6977176 26.5890307,24.6977176 C26.3362428,24.6977176 26.1087337,24.7597655 25.8904169,24.8953517 C25.6675039,25.0378322 25.4583794,25.2469567 25.2699375,25.54111 L24.6701407,26.4672329 L24.6701407,25.35037 L24.6701407,21.6619646 L22.7029911,21.6619646 L22.7029911,34.9241376 L24.5598332,34.9241376 L24.6747368,34.3335331 L24.8356019,33.5108233 L25.2722355,34.2186295 C25.4652736,34.5357634 25.6789943,34.7678687 25.9042053,34.9218395 C26.117926,35.06432 26.340839,35.1378583 26.5844346,35.1378583 C26.9291454,35.1378583 27.2187024,35.0160604 27.4714904,34.779359 C27.7357686,34.521975 27.8989317,34.234716 27.970172,33.8854091 C28.0483064,33.499333 28.0873736,32.8880459 28.0873736,32.9294112 L28.0873736,27.6645284 C28.0873736,27.6875091 28.1655081,27.140568 28.0483064,26.05358 C28.0276238,25.8260709 27.9563835,25.6031579 27.8368838,25.3710526 L27.8368838,25.3710526 Z M26.1248202,31.2150495 C26.1248202,32.157259 26.0765607,32.444518 26.0374935,32.5938927 C25.9455706,32.9179208 25.7134653,33.1063627 25.4009276,33.1063627 C25.0975821,33.1063627 24.8654768,32.9271131 24.7689578,32.6122772 C24.7229964,32.4697968 24.6724388,32.189432 24.6724388,31.327655 L24.6724388,28.6595935 C24.6724388,27.7633455 24.7184002,27.4944711 24.7597655,27.3657791 C24.8493903,27.0693278 25.0837936,26.8900782 25.3848411,26.8900782 C25.6950808,26.8900782 25.9294841,27.0785201 26.0283012,27.3979521 C26.0719646,27.5381344 26.1294164,27.8184992 26.1294164,28.6641897 L26.1294164,31.2173476 L26.1248202,31.2150495 L26.1248202,31.2150495 L26.1248202,31.2150495 Z M31.5000104,30.1901094 L31.8286347,30.1901094 L34.8965607,30.1901094 L34.8965607,29.0962272 C34.8965607,28.1057582 34.8046378,26.9705107 34.6230902,26.4396561 C34.4507348,25.927186 34.1588796,25.5319177 33.7291402,25.2262741 C33.3131892,24.9321209 32.766248,24.7781501 32.1067014,24.7781501 C31.5712507,24.7781501 31.0932517,24.902246 30.686493,25.1527358 C30.2797342,25.4032256 29.9970714,25.7548306 29.8178218,26.2305315 C29.6293799,26.724617 29.5305628,27.427827 29.5305628,28.67568 L29.5305628,31.7665868 C29.5305628,32.1641532 29.5765242,32.7524596 29.6592548,33.1385357 C29.7419854,33.5108233 29.8913601,33.8555341 30.1027827,34.1657738 C30.302715,34.457629 30.5945701,34.6943304 30.9622616,34.8666858 C31.3391454,35.0413392 31.7849713,35.130964 32.285951,35.130964 C32.7984211,35.130964 33.2258624,35.0413392 33.5521886,34.8712819 C33.8785149,34.6989265 34.1496873,34.4346483 34.3657061,34.0853413 C34.5909171,33.722246 34.7356957,33.3752371 34.7954455,33.0626993 C34.8597916,32.734075 34.8919646,32.2468838 34.8919646,31.6126159 L34.8919646,31.1415112 L33.0626993,31.1415112 L33.0626993,32.2262011 C33.0626993,32.8007191 33.0236321,33.1753048 32.9431996,33.4005159 C32.8305941,33.7061595 32.5709119,33.8854091 32.2330954,33.8854091 C31.9366441,33.8854091 31.7068369,33.7383325 31.6034237,33.4740542 C31.5528661,33.3499583 31.4954143,33.1270453 31.4954143,32.4353257 L31.4954143,30.5095414 L31.4954143,30.1924075 L31.5000104,30.1924075 L31.5000104,30.1901094 L31.5000104,30.1901094 Z M31.5000104,28.7767952 L31.5000104,27.6392496 C31.5000104,26.8027514 31.5436738,26.9291454 31.5804429,26.8165399 C31.6677697,26.5476655 31.9044711,26.3890985 32.2330954,26.3890985 C32.5272486,26.3890985 32.7524596,26.5614539 32.8420844,26.8556071 C32.8788536,26.9751068 32.924815,26.8602032 32.924815,27.6392496 L32.924815,28.7767952 L32.924815,29.0962272 L32.5961907,29.0962272 L31.8309328,29.0962272 L31.5023085,29.0962272 C31.5023085,29.0962272 31.5000104,28.7767952 31.5000104,28.7767952 L31.5000104,28.7767952 Z" id="Shape"></path>
                </g>
            </g>
        </g>
    </g>
</svg>