<?xml version="1.0" encoding="UTF-8" standalone="no"?>
<svg width="43px" height="44px" viewBox="0 0 43 44" version="1.1" xmlns="http://www.w3.org/2000/svg" xmlns:xlink="http://www.w3.org/1999/xlink">
    <!-- Generator: Sketch 42 (36781) - http://www.bohemiancoding.com/sketch -->
    <title>camera-retro</title>
    <desc>Created with Sketch.</desc>
    <defs></defs>
    <g id="Welcome" stroke="none" stroke-width="1" fill="none" fill-rule="evenodd">
        <g id="Ethno" transform="translate(-43.000000, -950.000000)" fill="#a98c63">
            <g id="Group-2" transform="translate(43.000000, 950.000000)">
                <g id="camera-retro">
                    <g id="Group">
                        <path d="M38.9717344,2.05173636 C38.9717344,2.05173636 36.1067865,1.02420613 32,1 C30.1920809,0.989343804 28.1671785,2.23663366 26,2.05173636 C21.9972137,1.71023041 16.9134795,0 14,0 C10.0828119,4.90247849e-16 2.99799609,2.05173636 2.99799609,2.05173636 C2.17030078,2.05173636 1.46368359,2.39308182 0.878226562,3.07367273 C0.292933594,3.75512273 0,4.57727273 0,5.54031364 L0.878226563,15 C0.878226563,15 2.76075385,17.6736259 2.99799609,20 C3.13467833,21.3402925 2,26 2,26 C2,26 0.878226563,30.8865698 0.878226563,33 C0.878226563,36.0278668 0,40.4238909 0,40.4238909 C0,41.3869318 0.292605469,42.2087955 0.878226562,42.8902455 C1.46401172,43.5716955 2.17021875,43.9126591 2.99799609,43.9126591 C2.99799609,43.9126591 8.56612985,42.8902455 11,42.8902455 C14.6924308,42.8902455 18.2362033,43.7253583 23,43.9126591 C24.8416962,43.98507 28.1922599,42.8754646 30,42.8902455 C35.619213,42.9361904 38.9712422,43.9126591 38.9712422,43.9126591 C39.7991016,43.9126591 40.5057188,43.5716955 41.0913398,42.8902455 C41.6763867,42.2087955 41.9694023,41.3869318 41.9694023,40.4238909 C41.9694023,40.4238909 42.5169986,36.5844241 41.9694023,32 C41.7634161,30.2755026 39.9398706,29.04047 40,27 C40.0296193,25.9948797 41.9694023,21.9563295 41.9694023,21.9563295 C41.9694023,21.9563295 41.1123524,19.9172503 41.0913398,19 C41.0481321,17.1138704 41.0913398,15.4665144 41.0913398,14 C41.0913398,10.8773885 41.9694023,5.54031364 41.9694023,5.54031364 C41.9693203,4.57765455 41.6763047,3.75550455 41.0912578,3.07367273 C40.5058828,2.39279545 39.7993477,2.05173636 38.9717344,2.05173636 Z M5.99558203,3.79588182 L14.9891602,3.79588182 L14.9891602,7.28436364 L5.99558203,7.28436364 L5.99558203,3.79588182 L5.99558203,3.79588182 Z M38.9717344,40.4238909 L2.99799609,40.4238909 L2.99799609,36.9355045 L38.9718164,36.9355045 L38.9718164,40.4238909 L38.9717344,40.4238909 L38.9717344,40.4238909 Z M11.991082,24.7808 C11.991082,21.8920591 12.8696367,19.4255136 14.6260078,17.3815455 C16.3827891,15.3377682 18.5020664,14.3158318 20.9846602,14.3158318 C23.467418,14.3158318 25.5869414,15.3378636 27.3433945,17.3815455 C29.0998477,19.4255136 29.9779922,21.8920591 29.9779922,24.7808 C29.9779922,27.6698273 29.0998477,30.1360864 27.3433945,32.1799591 C25.5869414,34.2239273 23.467418,35.2460545 20.9846602,35.2460545 C18.5020664,35.2460545 16.3827891,34.2239273 14.6260078,32.1799591 C12.8693906,30.1360864 11.991082,27.6698273 11.991082,24.7808 L11.991082,24.7808 Z M38.9717344,9.30150909 L38.9717344,12.5169909 L2.99799609,12.5169909 L2.99799609,9.02889091 L18.081,9.02889091 L19.579793,5.54069545 L38.9717344,5.54069545 L38.9717344,9.30150909 L38.9717344,9.30150909 L38.9717344,9.30150909 Z" id="Shape"></path>
                        <path d="M25.223625,29.7137 C26.3947852,28.3508955 26.9804062,26.7067864 26.9804062,24.7808 C26.9804062,22.8551 26.3947852,21.2107045 25.223625,19.8481864 C24.052793,18.4855727 22.6398867,17.8041227 20.9846602,17.8041227 C19.3295156,17.8041227 17.9166914,18.4855727 16.7454492,19.8481864 C15.5746992,21.2107045 14.9890781,22.8551 14.9890781,24.7808 C14.9890781,26.7067864 15.5743711,28.3508 16.7454492,29.7137 C17.9166094,31.0762182 19.3297617,31.7575727 20.9846602,31.7575727 C22.6398867,31.7575727 24.0527109,31.0762182 25.223625,29.7137 L25.223625,29.7137 Z M19.3918594,22.8730455 C18.9546328,23.3820091 18.7361836,23.9996955 18.7361836,24.7262955 C18.7361836,24.9806818 18.6660469,25.1897273 18.5253633,25.35305 C18.3848437,25.5167545 18.2055234,25.5979864 17.9866641,25.5979864 C17.7679687,25.5979864 17.5885664,25.5166591 17.4479648,25.35305 C17.3074453,25.1897273 17.2373086,24.9806818 17.2373086,24.7262955 C17.2373086,23.5271 17.6042344,22.5008682 18.3380039,21.6468364 C19.0719375,20.7929955 19.9541016,20.3661227 20.9846602,20.3661227 C21.2031094,20.3661227 21.3827578,20.4476409 21.5233594,20.61125 C21.664043,20.7743818 21.7341797,20.9834273 21.7341797,21.2377182 C21.7341797,21.4922 21.664043,21.7012455 21.5230312,21.86495 C21.3824297,22.0284636 21.2027812,22.1100773 20.9844141,22.1100773 C20.3598281,22.1101727 19.8290859,22.3643682 19.3918594,22.8730455 L19.3918594,22.8730455 Z" id="Shape"></path>
                    </g>
                </g>
            </g>
        </g>
    </g>
</svg>