<?xml version="1.0" encoding="UTF-8" standalone="no"?>
<svg width="43px" height="43px" viewBox="0 0 43 43" version="1.1" xmlns="http://www.w3.org/2000/svg" xmlns:xlink="http://www.w3.org/1999/xlink">
    <!-- Generator: Sketch 42 (36781) - http://www.bohemiancoding.com/sketch -->
    <title>facebook-logo</title>
    <desc>Created with Sketch.</desc>
    <defs></defs>
    <g id="Welcome" stroke="none" stroke-width="1" fill="none" fill-rule="evenodd">
        <g id="Ethno" transform="translate(-181.000000, -952.000000)" fill="#a98c63">
            <g id="Group-2" transform="translate(43.000000, 950.000000)">
                <g id="facebook-logo" transform="translate(138.000000, 2.000000)">
                    <g id="post-facebook">
                        <path d="M35,1 L31,0 L23,1 L13,2 L4.2,1 C1.89,1 1,3.69 1,6 C1,6 3,8.52245918 3,12 C3,13.310021 3.3538041,14.8679375 3,16 C2.41460677,17.8730752 1,19 1,19 L1,23 C1,23 2,27.1857827 2,29 C2,30.8142173 1.44875671,32.952901 1,34 C0.448756712,35.2862343 1,38 1,38 C1,40.31 2.69,41 5,41 L12,41 L20,43 C20,43 23.4609099,42.153909 25,42 C26.7942432,41.8205757 31,43 31,43 L37,41 C39.31,41 42,40.11 42,37.8 L41,30 L42,20 C42,20 41.6939964,15.754032 42,13 C42.0273298,12.754032 42,11 42,11 L42,5 C42,2.69 41.31,1 39,1 L35,1 Z M35.7,4.2 L35.7,10.5 L31.5,10.5 C30.24,10.5 29.4,11.34 29.4,12.6 L29.4,16.8 L35.7,16.8 L35.7,23.1 L29.4,23.1 L29.4,37.8 L23.1,37.8 L23.1,23.1 L18.9,23.1 L18.9,16.8 L23.1,16.8 L23.1,11.55 C23.1,7.56 26.46,4.2 30.45,4.2 L35.7,4.2 L35.7,4.2 Z" id="Shape"></path>
                    </g>
                </g>
            </g>
        </g>
    </g>
</svg>